<svg width="100" height="100" viewBox="0 0 46 46" xmlns="http://www.w3.org/2000/svg" xmlns:svg="http://www.w3.org/2000/svg">
  <g id="logo" transform="matrix(1.0014877,0,0,0.99096953,-50.990508,-101.08883)">
    <rect id="background" fill="#fdfcfc" width="44" height="44" x="52" y="103" rx="10" />
    <path id="accent" style="display:inline;fill:#58a6ff;stroke-width:0.211667" d="m 56.312262,148.06781 c -2.214759,-0.5887 -3.808842,-2.02499 -4.911362,-4.4252 l -0.486138,-1.05833 v -17.35667 -17.35667 l 0.486138,-1.05833 c 1.12102,-2.44049 2.707451,-3.84616 5.00875,-4.43804 1.889819,-0.48605 33.052072,-0.48605 34.941891,0 2.301299,0.59188 3.88773,1.99755 5.008751,4.43804 l 0.486137,1.05833 v 17.35667 17.35667 l -0.486137,1.05833 c -1.121021,2.44049 -2.707452,3.84616 -5.008751,4.43804 -1.837421,0.47257 -33.256401,0.46106 -35.039279,-0.0128 z m 34.819167,-3.65912 c 1.007072,-0.46245 1.458366,-0.93449 1.896927,-1.98411 0.283491,-0.67849 0.325573,-2.90132 0.325573,-17.19697 0,-14.29565 -0.04208,-16.51848 -0.325573,-17.19697 -0.438561,-1.04962 -0.889855,-1.52166 -1.896927,-1.98411 -0.798092,-0.36648 -1.785165,-0.38906 -17.204716,-0.39344 -14.249073,-0.004 -16.458507,0.0373 -17.137252,0.32093 -1.049625,0.43856 -1.521662,0.88985 -1.984111,1.89692 -0.366554,0.79825 -0.389056,1.7883 -0.393439,17.31055 -0.004,14.34431 0.03727,16.5642 0.320924,17.24309 0.438561,1.04962 0.889856,1.52166 1.896927,1.98411 0.798449,0.36665 1.780889,0.38879 17.250833,0.38879 15.469944,0 16.452385,-0.0221 17.250834,-0.38879 z m -14.615607,-12.01713 -0.590019,-0.77356 0.723646,-0.63895 c 1.671384,-1.47577 1.848962,-2.39369 0.723646,-3.74061 -0.407458,-0.48769 -0.750925,-1.09202 -0.763261,-1.34294 -0.08976,-1.82583 0.299847,-2.56612 1.524013,-2.89575 1.245884,-0.33549 2.470031,0.0874 3.026473,1.04537 0.892941,1.53737 0.375217,4.58754 -1.115396,6.57136 -0.708294,0.94265 -2.469583,2.54141 -2.805456,2.54657 -0.0735,0.001 -0.399135,-0.34604 -0.723646,-0.77149 z m 7.468153,0.004 -0.547567,-0.76959 1.042928,-1.01584 c 1.230149,-1.1982 1.38576,-2.08038 0.545207,-3.09083 -0.751087,-0.90292 -0.983948,-1.44526 -0.983948,-2.29167 0,-1.35876 0.616533,-2.10259 1.93105,-2.32977 0.951118,-0.16437 2.140242,0.29819 2.610121,1.01532 0.912537,1.39271 0.489992,4.46295 -0.891997,6.48128 -0.702979,1.02668 -2.590931,2.77067 -2.999376,2.77067 -0.08737,0 -0.405257,-0.34631 -0.706418,-0.76958 z m -23.606198,-5.88999 c -0.496945,-0.2229 -0.823427,-0.59847 -1.137534,-1.30856 -1.088445,-2.46061 0.61326,-6.5458 3.520059,-8.4504 0.573351,-0.37568 0.588031,-0.37369 0.988831,0.13401 0.869846,1.10184 0.873161,1.19266 0.06601,1.8083 -1.529292,1.16645 -1.724521,2.32213 -0.625773,3.70434 0.791702,0.99595 0.98269,2.18231 0.516159,3.20623 -0.45799,1.00518 -2.106271,1.45397 -3.327756,0.90608 z m 7.893652,0.13622 c -1.35762,-0.46231 -1.854095,-1.32062 -1.836644,-3.17519 0.02136,-2.27035 0.643499,-3.6469 2.480579,-5.48855 0.841923,-0.84402 1.625468,-1.53459 1.741211,-1.53459 0.115743,0 0.468724,0.33863 0.784402,0.7525 l 0.573959,0.7525 -1.078003,1.13983 c -0.595331,0.62948 -1.078004,1.33976 -1.078004,1.58635 0,0.53522 0.48305,1.51755 0.927716,1.88659 0.92417,0.76699 0.835453,3.08014 -0.142277,3.70964 -0.577773,0.37199 -1.806001,0.56398 -2.372939,0.37092 z" />
  </g>
</svg>
